<?xml version="1.0" encoding="utf-8"?>
<!-- Generator: Adobe Illustrator 19.1.0, SVG Export Plug-In . SVG Version: 6.00 Build 0)  -->
<!DOCTYPE svg PUBLIC "-//W3C//DTD SVG 1.1//EN" "http://www.w3.org/Graphics/SVG/1.1/DTD/svg11.dtd">
<svg version="1.1" id="Layer_1" xmlns="http://www.w3.org/2000/svg" xmlns:xlink="http://www.w3.org/1999/xlink" x="0px" y="0px"
	 viewBox="-304 211 30 60" style="enable-background:new -304 211 30 60;" xml:space="preserve">
<style type="text/css">
	.st0{fill:#FFFFFF;}
</style>
<path class="st0" d="M-275.4,242.5c-1.2-1.2-3.1-1.2-4.2,0l-9.3,9.3l-9.3-9.3c-1.2-1.2-3.1-1.2-4.2,0c-1.2,1.2-1.2,3.1,0,4.2
	l9.3,9.3l-9.3,9.3c-1.2,1.2-1.2,3.1,0,4.2c0.6,0.6,1.4,0.9,2.1,0.9c0.7,0,1.5-0.3,2.1-0.9l9.3-9.3l9.3,9.3c0.6,0.6,1.4,0.9,2.1,0.9
	s1.5-0.3,2.1-0.9c1.2-1.2,1.2-3.1,0-4.2l-9.3-9.3l9.3-9.3C-274.2,245.6-274.2,243.7-275.4,242.5z M-277,233h-24c-1.7,0-3,1.3-3,3
	s1.3,3,3,3h24c1.7,0,3-1.3,3-3S-275.3,233-277,233z M-277,222h-24c-1.7,0-3,1.3-3,3s1.3,3,3,3h24c1.7,0,3-1.3,3-3
	S-275.3,222-277,222z M-301,217h24c1.7,0,3-1.3,3-3s-1.3-3-3-3h-24c-1.7,0-3,1.3-3,3S-302.7,217-301,217z"/>
</svg>
