<?xml version="1.0" encoding="utf-8"?>
<!DOCTYPE svg PUBLIC "-//W3C//DTD SVG 1.1//EN" "http://www.w3.org/Graphics/SVG/1.1/DTD/svg11.dtd">
<svg version="1.1" id="Layer_1" xmlns="http://www.w3.org/2000/svg" xmlns:xlink="http://www.w3.org/1999/xlink" x="0px" y="0px"
	 width="300px" height="271.011px" viewBox="0 0 300 271.011" enable-background="new 0 0 300 271.011" xml:space="preserve">
<g>
	<g>
		<path fill="#1D1D1B" d="M244.104,21.669c2.53,16.521,7.643,59.069,9.861,131.653c9.732,0,17,0,17,0s-2.172-40.202-12.511-130.304
			L244.104,21.669z"/>
		<g>
			<path fill="#1D1D1B" d="M276.272,0.899l-38.698,3.898c-2.977,0-5.397,2.415-5.397,5.397c0,2.979,2.421,5.394,5.397,5.394
				l38.698,3.852V0.899z"/>
			<path fill="#1D1D1B" d="M286.744-0.067c-0.379,0.028-0.754,0.066-1.12,0.131L281.5,0.458v19.473l4.124,0.386
				c0.366,0.07,0.741,0.112,1.12,0.139V-0.067z"/>
			<path fill="#1D1D1B" d="M291.933,0.141v20.103c4.609-1.024,8.067-5.131,8.067-10.05C300,5.272,296.542,1.162,291.933,0.141z"/>
		</g>
		<path fill="#1D1D1B" d="M236.214,93.086h8.67c0,0,4.197,50.391,3.826,65.412c-2.586,0-6.265,0-6.265,0
			S239.618,115.89,236.214,93.086z"/>
	</g>
	<g>
		<path fill="#1D1D1B" d="M149.28,83.343c-4.856,0-8.793,3.933-8.793,8.789c0,4.727,3.948,8.782,8.402,8.782
			c1.874,0,3.838-1.12,3.838-4.01c0-2.897-2.428-3.57-3.598-3.57c-1.174,0-2.048,0.6-2.048,0.6v-6.002
			c1-0.617,1.561-0.869,3.35-0.869c1.655,0,6.843,0.619,7.569,6.202c0.048-0.372,0.077-0.749,0.077-1.133
			C158.078,87.275,154.142,83.343,149.28,83.343z"/>
		<rect x="69.206" y="240.951" fill="#1D1D1B" width="103.732" height="5.911"/>
		<path fill="#1D1D1B" d="M183.876,239.336c-2.399,0-4.338,1.943-4.338,4.335c0,2.396,1.938,4.335,4.338,4.335
			c2.392,0,4.34-1.939,4.34-4.335C188.216,241.279,186.268,239.336,183.876,239.336z"/>
		<path fill="#1D1D1B" d="M222.702,39.898l-57.9-20.698H74.135L15.983,39.898c0,0-20.2,112.102-15.029,178.388
			c2.059,0.309,4.23,0.596,6.479,0.881c3.319,8.014,22.75,37.099,30.999,45.352c9.041,9.042,154.579,8.261,162.844,0
			c7.538-7.543,27.733-37.918,31.188-45.51c1.74-0.236,3.416-0.48,5.023-0.723C242.654,148.801,222.702,39.898,222.702,39.898z
			 M201.472,140.042v52.164c0,1.572-1.286,2.858-2.859,2.858H128.75c-1.577,0-2.86-1.286-2.86-2.858v-52.164
			c0-1.572,1.283-2.859,2.86-2.859h69.862C200.186,137.183,201.472,138.47,201.472,140.042z M113.917,83.543v-6.395h3.596V66.356
			h7.194v10.792h5.595v6.395h-5.595v13.986c0,3.157,5.193,2.798,5.193,2.798v6.391c-12.388,0.254-12.388-6.127-12.388-6.391
			c0-0.271,0-2.798,0-2.798V83.543H113.917z M133.352,92.132c0-8.576,6.954-15.536,15.531-15.536c8.578,0,15.536,6.96,15.536,15.536
			c0,8.582-6.958,15.539-15.536,15.539C140.306,107.671,133.352,100.714,133.352,92.132z M80.812,29.023h77.072l11.116,5.304h-99.32
			L80.812,29.023z M91.708,169.583c0-2.263,1.309-4.202,3.194-5.164v-30.354c0-1.445,1.171-2.619,2.619-2.619
			c1.45,0,2.621,1.174,2.621,2.619v30.354c1.89,0.962,3.194,2.901,3.194,5.164c0,2.261-1.305,4.2-3.194,5.167v23.433
			c0,1.449-1.171,2.619-2.621,2.619c-1.448,0-2.619-1.17-2.619-2.619V174.75C93.017,173.783,91.708,171.844,91.708,169.583z
			 M70.805,162.387c0-2.265,1.307-4.2,3.195-5.163v-23.159c0-1.445,1.172-2.619,2.619-2.619c1.445,0,2.62,1.174,2.62,2.619v23.159
			c1.886,0.963,3.191,2.898,3.191,5.163c0,2.264-1.306,4.202-3.191,5.164v30.632c0,1.449-1.175,2.619-2.62,2.619
			c-1.447,0-2.619-1.17-2.619-2.619v-30.632C72.111,166.589,70.805,164.65,70.805,162.387z M80.75,106.718V73.953h-9.191v-7.597
			h26.775v7.597h-9.191v32.765H80.75z M102.329,106.718V77.547h7.592v29.171H102.329z M102.329,73.552v-7.195h7.592v7.195H102.329z
			 M51.437,179.743v-45.679c0-1.445,1.166-2.619,2.615-2.619c1.448,0,2.62,1.174,2.62,2.619v45.679
			c1.889,0.957,3.194,2.9,3.194,5.161c0,2.264-1.306,4.203-3.194,5.165v8.113c0,1.449-1.172,2.619-2.62,2.619
			c-1.449,0-2.615-1.17-2.615-2.619v-8.113c-1.894-0.962-3.195-2.901-3.195-5.165C48.241,182.644,49.543,180.704,51.437,179.743z
			 M34.688,198.183c0,1.449-1.172,2.619-2.623,2.619c-1.445,0-2.62-1.17-2.62-2.619v-37.944c-1.886-0.967-3.192-2.903-3.192-5.166
			c0-2.265,1.307-4.2,3.192-5.167v-15.841c0-1.445,1.175-2.619,2.62-2.619c1.451,0,2.623,1.174,2.623,2.619v15.841
			c1.889,0.967,3.195,2.902,3.195,5.167c0,2.263-1.307,4.199-3.195,5.166V198.183z M189.931,258.685H50.726L35.696,229.12h169.145
			L189.931,258.685z"/>
		<g>
			<path fill="#1D1D1B" d="M146.021,156.915c-2.376,0-3.879,3.04-3.879,9.172c-0.039,6.251,1.464,9.25,3.879,9.25h0.042
				c2.462,0,3.791-3.082,3.791-9.25C149.854,160.084,148.562,156.915,146.021,156.915z"/>
			<path fill="#1D1D1B" d="M158.654,141.392h-25.229c-1.795,0-3.241,1.452-3.241,3.243v42.973c0,1.794,1.446,3.254,3.241,3.254
				h25.229c1.797,0,3.245-1.46,3.245-3.254v-42.973C161.899,142.844,160.451,141.392,158.654,141.392z M146.021,180.132h-0.044
				c-7.004,0-10.088-6.294-10.13-13.968c0-7.874,3.295-14.048,10.296-14.048c7.215,0,10.089,6.46,10.089,13.883
				C156.231,174.34,152.859,180.132,146.021,180.132z"/>
		</g>
		<path fill="#1D1D1B" d="M193.931,141.392h-25.115c-1.797,0-3.249,1.452-3.249,3.243v42.973c0,1.794,1.452,3.254,3.249,3.254
			h25.115c1.796,0,3.248-1.46,3.248-3.254v-42.973C197.179,142.844,195.727,141.392,193.931,141.392z M190.826,179.68h-18.908
			v-3.771l3.407-3.08c5.866-5.25,8.693-8.245,8.737-11.363c0-2.171-1.275-3.895-4.348-3.895c-2.299,0-4.308,1.151-5.702,2.172
			l-1.766-4.428c1.971-1.519,5.127-2.751,8.696-2.751c6.07,0,9.351,3.531,9.351,8.368c0,4.476-3.195,8.044-7.094,11.486
			l-2.461,2.053v0.085h10.087V179.68z"/>
	</g>
</g>
</svg>
